<svg width="20" height="20" viewBox="0 0 20 20" fill="none" xmlns="http://www.w3.org/2000/svg">
    <path d="M15.8333 3.33464H12.35C12 2.36797 11.0833 1.66797 10 1.66797C8.91667 1.66797 8 2.36797 7.65 3.33464H4.16667C3.25 3.33464 2.5 4.08464 2.5 5.0013V16.668C2.5 17.5846 3.25 18.3346 4.16667 18.3346H15.8333C16.75 18.3346 17.5 17.5846 17.5 16.668V5.0013C17.5 4.08464 16.75 3.33464 15.8333 3.33464ZM10 3.1263C10.1833 3.1263 10.3417 3.20964 10.4583 3.33464C10.5583 3.44297 10.625 3.59297 10.625 3.7513C10.625 4.09297 10.3417 4.3763 10 4.3763C9.65833 4.3763 9.375 4.09297 9.375 3.7513C9.375 3.59297 9.44167 3.44297 9.54167 3.33464C9.65833 3.20964 9.81667 3.1263 10 3.1263ZM15.8333 16.668H4.16667V5.0013H15.8333V16.668ZM10 5.83464C8.625 5.83464 7.5 6.95964 7.5 8.33464C7.5 9.70964 8.625 10.8346 10 10.8346C11.375 10.8346 12.5 9.70964 12.5 8.33464C12.5 6.95964 11.375 5.83464 10 5.83464ZM10 9.16797C9.54167 9.16797 9.16667 8.79297 9.16667 8.33464C9.16667 7.8763 9.54167 7.5013 10 7.5013C10.4583 7.5013 10.8333 7.8763 10.8333 8.33464C10.8333 8.79297 10.4583 9.16797 10 9.16797ZM5 14.5596V15.8346H15V14.5596C15 12.4763 11.6917 11.5763 10 11.5763C8.30833 11.5763 5 12.468 5 14.5596ZM6.925 14.168C7.5 13.7013 8.90833 13.2346 10 13.2346C11.0917 13.2346 12.5083 13.7013 13.075 14.168H6.925Z"
          fill="#275778"/>
</svg>
