<svg width="18" height="18" viewBox="0 0 18 18" fill="none" xmlns="http://www.w3.org/2000/svg">
<g clip-path="url(#clip0_6371_108990)">
<path d="M8.85023 8.175C7.14773 7.7325 6.60023 7.275 6.60023 6.5625C6.60023 5.745 7.35773 5.175 8.62523 5.175C9.96023 5.175 10.4552 5.8125 10.5002 6.75H12.1577C12.1052 5.46 11.3177 4.275 9.75023 3.8925V2.25H7.50023V3.87C6.04523 4.185 4.87523 5.13 4.87523 6.5775C4.87523 8.31 6.30773 9.1725 8.40023 9.675C10.2752 10.125 10.6502 10.785 10.6502 11.4825C10.6502 12 10.2827 12.825 8.62523 12.825C7.08023 12.825 6.47273 12.135 6.39023 11.25H4.74023C4.83023 12.8925 6.06023 13.815 7.50023 14.1225V15.75H9.75023V14.1375C11.2127 13.86 12.3752 13.0125 12.3752 11.475C12.3752 9.345 10.5527 8.6175 8.85023 8.175Z" fill="currentColor"/>
</g>
<defs>
<clipPath id="clip0_6371_108990">
<rect width="18" height="18" fill="currentColor"/>
</clipPath>
</defs>
</svg>
