<svg width="18" height="18" viewBox="0 0 18 18" fill="none" xmlns="http://www.w3.org/2000/svg">
    <g id="attach_file">
        <path id="Vector"
              d="M12 4.5V13.125C12 14.7825 10.6575 16.125 9 16.125C7.3425 16.125 6 14.7825 6 13.125V3.75C6 2.715 6.84 1.875 7.875 1.875C8.91 1.875 9.75 2.715 9.75 3.75V11.625C9.75 12.0375 9.4125 12.375 9 12.375C8.5875 12.375 8.25 12.0375 8.25 11.625V4.5H7.125V11.625C7.125 12.66 7.965 13.5 9 13.5C10.035 13.5 10.875 12.66 10.875 11.625V3.75C10.875 2.0925 9.5325 0.75 7.875 0.75C6.2175 0.75 4.875 2.0925 4.875 3.75V13.125C4.875 15.405 6.72 17.25 9 17.25C11.28 17.25 13.125 15.405 13.125 13.125V4.5H12Z"
              fill="currentColor"/>
    </g>
</svg>
