<svg width="135" height="252" viewBox="0 0 135 252" fill="none" xmlns="http://www.w3.org/2000/svg">
    <path id="Vector" d="M103 68.5C115.673 68.5 125.833 58.225 125.833 45.6667C125.833 41.3283 124.692 37.3325 122.523 33.9075L103 0L83.4775 33.9075C81.3083 37.3325 80.1667 41.3283 80.1667 45.6667C80.1667 58.225 90.4417 68.5 103 68.5ZM171.5 102.75H114.417V79.9167H91.5833V102.75H34.5C15.5483 102.75 0.25 118.048 0.25 137V239.75C0.25 246.029 5.3875 251.167 11.6667 251.167H194.333C200.613 251.167 205.75 246.029 205.75 239.75V137C205.75 118.048 190.452 102.75 171.5 102.75ZM182.917 228.333H23.0833V194.083C33.3583 193.969 43.1767 189.859 50.4833 182.553L62.9275 170.337L75.1433 182.553C90.0992 197.508 116.129 197.394 130.971 182.553L143.301 170.337L155.517 182.553C162.823 189.859 172.642 193.969 182.917 194.083V228.333ZM182.917 176.958C177.094 176.844 171.614 174.675 167.504 170.451L143.187 146.133L118.755 170.451C110.307 178.899 95.5792 178.899 87.1308 170.451L62.8133 146.133L38.3817 170.451C34.3858 174.561 28.9058 176.844 23.0833 176.958V137C23.0833 130.721 28.2208 125.583 34.5 125.583H171.5C177.779 125.583 182.917 130.721 182.917 137V176.958Z" fill="#F4FAFD"/>
</svg>
