<svg width="24" height="24" viewBox="0 0 20 20" fill="none" xmlns="http://www.w3.org/2000/svg">
<g id="cake_black_24dp 2" clip-path="url(#clip0_13584_134326)">
<path id="Vector" d="M10 5C10.925 5 11.6667 4.25 11.6667 3.33333C11.6667 3.01667 11.5833 2.725 11.425 2.475L10 0L8.575 2.475C8.41667 2.725 8.33333 3.01667 8.33333 3.33333C8.33333 4.25 9.08333 5 10 5ZM15 7.5H10.8333V5.83333H9.16667V7.5H5C3.61667 7.5 2.5 8.61667 2.5 10V17.5C2.5 17.9583 2.875 18.3333 3.33333 18.3333H16.6667C17.125 18.3333 17.5 17.9583 17.5 17.5V10C17.5 8.61667 16.3833 7.5 15 7.5ZM15.8333 16.6667H4.16667V14.1667C4.91667 14.1583 5.63333 13.8583 6.16667 13.325L7.075 12.4333L7.96667 13.325C9.05833 14.4167 10.9583 14.4083 12.0417 13.325L12.9417 12.4333L13.8333 13.325C14.3667 13.8583 15.0833 14.1583 15.8333 14.1667V16.6667ZM15.8333 12.9167C15.4083 12.9083 15.0083 12.75 14.7083 12.4417L12.9333 10.6667L11.15 12.4417C10.5333 13.0583 9.45833 13.0583 8.84167 12.4417L7.06667 10.6667L5.28333 12.4417C4.99167 12.7417 4.59167 12.9083 4.16667 12.9167V10C4.16667 9.54167 4.54167 9.16667 5 9.16667H15C15.4583 9.16667 15.8333 9.54167 15.8333 10V12.9167Z" fill="#FF6B6B"/>
</g>
<defs>
<clipPath id="clip0_13584_134326">
<rect width="20" height="20" fill="white"/>
</clipPath>
</defs>
</svg>
