<svg xmlns="http://www.w3.org/2000/svg" width="20" height="20" viewBox="0 0 20 20" fill="none">
    <path d="M9.9974 1.66602C5.3974 1.66602 1.66406 5.39935 1.66406 9.99935C1.66406 14.5993 5.3974 18.3327 9.9974 18.3327C14.5974 18.3327 18.3307 14.5993 18.3307 9.99935C18.3307 5.39935 14.5974 1.66602 9.9974 1.66602ZM9.9974 16.666C6.3224 16.666 3.33073 13.6743 3.33073 9.99935C3.33073 6.32435 6.3224 3.33268 9.9974 3.33268C13.6724 3.33268 16.6641 6.32435 16.6641 9.99935C16.6641 13.6743 13.6724 16.666 9.9974 16.666ZM13.8224 6.31602L8.33073 11.8077L6.1724 9.65768L4.9974 10.8327L8.33073 14.166L14.9974 7.49935L13.8224 6.31602Z"
          fill="currentColor"/>
</svg>