<svg width="16" height="16" viewBox="0 0 16 16" fill="none" xmlns="http://www.w3.org/2000/svg">
    <g clip-path="url(#clip0_2162_5451)">
        <path d="M8.00065 1.33398C4.32065 1.33398 1.33398 4.32065 1.33398 8.00065C1.33398 11.6807 4.32065 14.6673 8.00065 14.6673C11.6807 14.6673 14.6673 11.6807 14.6673 8.00065C14.6673 4.32065 11.6807 1.33398 8.00065 1.33398ZM6.19398 10.8607L3.80065 8.46732C3.54065 8.20732 3.54065 7.78732 3.80065 7.52732C4.06065 7.26732 4.48065 7.26732 4.74065 7.52732L6.66732 9.44732L11.254 4.86065C11.514 4.60065 11.934 4.60065 12.194 4.86065C12.454 5.12065 12.454 5.54065 12.194 5.80065L7.13398 10.8607C6.88065 11.1207 6.45398 11.1207 6.19398 10.8607Z"
              fill="currentColor"/>
    </g>
    <defs>
        <clipPath id="clip0_2162_5451">
            <rect width="16" height="16" fill="white"/>
        </clipPath>
    </defs>
</svg>
