<svg width="18" height="20" viewBox="0 0 18 20" fill="none" xmlns="http://www.w3.org/2000/svg">
<path d="M8.0013 11.0833V6.75C8.0013 6.15417 7.5138 5.66667 6.91797 5.66667H2.58464V3.5H8.0013V1.33333H5.29297V0.25H3.1263V1.33333H1.5013C0.905469 1.33333 0.417969 1.82083 0.417969 2.41667V6.75C0.417969 7.34583 0.905469 7.83333 1.5013 7.83333H5.83464V10H0.417969V12.1667H3.1263V13.25H5.29297V12.1667H6.91797C7.5138 12.1667 8.0013 11.6792 8.0013 11.0833Z" fill="#275778"/>
<path d="M16.225 10.5625L10.0933 16.6833L7.0275 13.6175L5.5 15.1558L10.0933 19.7492L17.7525 12.09L16.225 10.5625Z" fill="#275778"/>
</svg>
