<svg width="22" height="21" viewBox="0 0 22 21" fill="none" xmlns="http://www.w3.org/2000/svg">
<path d="M19.668 4.4974H17.3063C17.4255 4.16156 17.5013 3.79323 17.5013 3.41406C17.5013 1.61573 16.0496 0.164062 14.2513 0.164062C13.1138 0.164062 12.128 0.749062 11.543 1.62656L11.0013 2.3524L10.4596 1.61573C9.87463 0.749062 8.8888 0.164062 7.7513 0.164062C5.95297 0.164062 4.5013 1.61573 4.5013 3.41406C4.5013 3.79323 4.57714 4.16156 4.6963 4.4974H2.33464C1.13214 4.4974 0.178802 5.46156 0.178802 6.66406L0.167969 18.5807C0.167969 19.7832 1.13214 20.7474 2.33464 20.7474H19.668C20.8705 20.7474 21.8346 19.7832 21.8346 18.5807V6.66406C21.8346 5.46156 20.8705 4.4974 19.668 4.4974ZM14.2513 2.33073C14.8471 2.33073 15.3346 2.81823 15.3346 3.41406C15.3346 4.0099 14.8471 4.4974 14.2513 4.4974C13.6555 4.4974 13.168 4.0099 13.168 3.41406C13.168 2.81823 13.6555 2.33073 14.2513 2.33073ZM7.7513 2.33073C8.34713 2.33073 8.83463 2.81823 8.83463 3.41406C8.83463 4.0099 8.34713 4.4974 7.7513 4.4974C7.15547 4.4974 6.66797 4.0099 6.66797 3.41406C6.66797 2.81823 7.15547 2.33073 7.7513 2.33073ZM19.668 18.5807H2.33464V16.4141H19.668V18.5807ZM19.668 13.1641H2.33464V6.66406H7.83797L5.58463 9.7299L7.33963 10.9974L9.91797 7.4874L11.0013 6.01406L12.0846 7.4874L14.663 10.9974L16.418 9.7299L14.1646 6.66406H19.668V13.1641Z" fill="#00534F"/>
</svg>
