<svg width="12" height="23" viewBox="0 0 12 23" fill="none" xmlns="http://www.w3.org/2000/svg">
    <path d="M7.21484 0.230469V3.6875H5.38672V0.230469H7.21484ZM6.99219 19.3672V22.5195H5.16406V19.3672H6.99219ZM8.28125 15.5234C8.28125 15.0781 8.19922 14.6992 8.03516 14.3867C7.87891 14.0742 7.62109 13.7969 7.26172 13.5547C6.91016 13.3125 6.43359 13.0781 5.83203 12.8516C4.81641 12.4609 3.92188 12.0469 3.14844 11.6094C2.38281 11.1641 1.78516 10.6133 1.35547 9.95703C0.925781 9.29297 0.710938 8.45312 0.710938 7.4375C0.710938 6.46875 0.941406 5.62891 1.40234 4.91797C1.86328 4.20703 2.5 3.66016 3.3125 3.27734C4.13281 2.88672 5.08594 2.69141 6.17188 2.69141C7 2.69141 7.75 2.81641 8.42188 3.06641C9.09375 3.30859 9.67188 3.66797 10.1562 4.14453C10.6406 4.61328 11.0117 5.1875 11.2695 5.86719C11.5273 6.54688 11.6562 7.32422 11.6562 8.19922H8.29297C8.29297 7.73047 8.24219 7.31641 8.14062 6.95703C8.03906 6.59766 7.89062 6.29688 7.69531 6.05469C7.50781 5.8125 7.28125 5.63281 7.01562 5.51562C6.75 5.39062 6.45703 5.32812 6.13672 5.32812C5.66016 5.32812 5.26953 5.42188 4.96484 5.60938C4.66016 5.79688 4.4375 6.05078 4.29688 6.37109C4.16406 6.68359 4.09766 7.04297 4.09766 7.44922C4.09766 7.84766 4.16797 8.19531 4.30859 8.49219C4.45703 8.78906 4.71094 9.0625 5.07031 9.3125C5.42969 9.55469 5.92188 9.80469 6.54688 10.0625C7.5625 10.4531 8.45312 10.875 9.21875 11.3281C9.98438 11.7812 10.582 12.3359 11.0117 12.9922C11.4414 13.6484 11.6562 14.4844 11.6562 15.5C11.6562 16.5078 11.4219 17.3672 10.9531 18.0781C10.4844 18.7812 9.82812 19.3203 8.98438 19.6953C8.14062 20.0625 7.16406 20.2461 6.05469 20.2461C5.33594 20.2461 4.62109 20.1523 3.91016 19.9648C3.19922 19.7695 2.55469 19.457 1.97656 19.0273C1.39844 18.5977 0.9375 18.0273 0.59375 17.3164C0.25 16.5977 0.078125 15.7148 0.078125 14.668H3.45312C3.45312 15.2383 3.52734 15.7148 3.67578 16.0977C3.82422 16.4727 4.01953 16.7734 4.26172 17C4.51172 17.2188 4.79297 17.375 5.10547 17.4688C5.41797 17.5625 5.73438 17.6094 6.05469 17.6094C6.55469 17.6094 6.96484 17.5195 7.28516 17.3398C7.61328 17.1602 7.85938 16.9141 8.02344 16.6016C8.19531 16.2812 8.28125 15.9219 8.28125 15.5234Z"
          fill="currentColor"/>
</svg>
