<svg width="20" height="20" viewBox="0 0 20 20" fill="none" xmlns="http://www.w3.org/2000/svg">
<path d="M15.8333 3.33464H15V1.66797H13.3333V3.33464H6.66667V1.66797H5V3.33464H4.16667C3.25 3.33464 2.5 4.08464 2.5 5.0013V16.668C2.5 17.5846 3.25 18.3346 4.16667 18.3346H15.8333C16.75 18.3346 17.5 17.5846 17.5 16.668V5.0013C17.5 4.08464 16.75 3.33464 15.8333 3.33464ZM15.8333 16.668H4.16667V8.33464H15.8333V16.668ZM4.16667 6.66797V5.0013H15.8333V6.66797H4.16667ZM5.83333 10.0013H14.1667V11.668H5.83333V10.0013ZM5.83333 13.3346H11.6667V15.0013H5.83333V13.3346Z" fill="#275778"/>
</svg>
