<svg width="25" height="24" viewBox="0 0 25 24" fill="none" xmlns="http://www.w3.org/2000/svg">
<path d="M12.1544 19C10.7608 19 9.39845 18.5895 8.23971 17.8203C7.08096 17.0511 6.17783 15.9579 5.64452 14.6788C5.11121 13.3997 4.97167 11.9922 5.24355 10.6344C5.51543 9.2765 6.18652 8.02922 7.17195 7.05026C8.15738 6.07129 9.41289 5.4046 10.7797 5.13451C12.1466 4.86441 13.5633 5.00303 14.8508 5.53285C16.1384 6.06266 17.2388 6.95987 18.0131 8.11101C18.7873 9.26216 19.2006 10.6155 19.2006 12C19.2006 13.8565 18.4582 15.637 17.1368 16.9498C15.8154 18.2625 14.0231 19 12.1544 19ZM12.1544 20C13.7471 20 15.304 19.5308 16.6283 18.6518C17.9525 17.7727 18.9847 16.5233 19.5942 15.0615C20.2037 13.5997 20.3632 11.9911 20.0524 10.4393C19.7417 8.88743 18.9748 7.46197 17.8486 6.34315C16.7224 5.22433 15.2875 4.4624 13.7254 4.15372C12.1633 3.84504 10.5441 4.00347 9.07269 4.60897C7.60123 5.21447 6.34356 6.23985 5.4587 7.55544C4.57385 8.87103 4.10156 10.4178 4.10156 12C4.10156 14.1217 4.94998 16.1566 6.46017 17.6569C7.97037 19.1571 10.0186 20 12.1544 20Z" fill="#496370"/>
<path d="M9.38785 9.78824C9.38647 9.82054 9.39175 9.85277 9.40338 9.88296C9.415 9.91315 9.43272 9.94066 9.45544 9.96379C9.47817 9.98693 9.50541 10.0052 9.53551 10.0175C9.5656 10.0298 9.5979 10.0358 9.63044 10.0352H10.4609C10.5284 10.0327 10.5926 10.006 10.6419 9.96002C10.6911 9.91407 10.7219 9.852 10.7286 9.78524C10.7581 9.45759 10.9165 9.15471 11.1694 8.94239C11.4224 8.73007 11.7494 8.62544 12.0795 8.65124C12.2459 8.62941 12.4152 8.64343 12.5757 8.69235C12.7362 8.74127 12.8842 8.82394 13.0097 8.93475C13.1352 9.04556 13.2352 9.18191 13.3029 9.33453C13.3706 9.48715 13.4045 9.65247 13.4022 9.81924C13.4022 10.4542 13.0257 10.7462 12.4308 11.1902C12.0746 11.3876 11.7779 11.6758 11.5712 12.025C11.3645 12.3743 11.2554 12.7721 11.2551 13.1772V13.3942C11.2561 13.4599 11.2831 13.5224 11.3302 13.5684C11.3773 13.6145 11.4407 13.6403 11.5067 13.6402H12.3231C12.3898 13.6402 12.4538 13.6139 12.501 13.567C12.5482 13.5201 12.5747 13.4565 12.5747 13.3902V13.2902C12.5747 12.5722 12.8495 12.3632 13.5914 11.8042C13.961 11.598 14.2705 11.3003 14.49 10.94C14.7094 10.5797 14.8312 10.1692 14.8436 9.74824C14.8466 8.23224 13.5602 7.50224 12.151 7.50224C11.8164 7.46195 11.477 7.48997 11.1537 7.58457C10.8304 7.67917 10.53 7.83837 10.2708 8.0524C10.0116 8.26644 9.7992 8.5308 9.6465 8.82928C9.4938 9.12777 9.40407 9.45409 9.38281 9.78824H9.38785ZM10.9551 15.5512C10.9568 15.6796 10.985 15.8063 11.0377 15.9235C11.0905 16.0407 11.1669 16.1459 11.2621 16.2327C11.3573 16.3195 11.4694 16.3861 11.5914 16.4283C11.7134 16.4705 11.8429 16.4875 11.9718 16.4782C12.1029 16.4911 12.2353 16.4764 12.3605 16.4354C12.4856 16.3943 12.6007 16.3276 12.6983 16.2397C12.7959 16.1518 12.874 16.0445 12.9274 15.9248C12.9808 15.8051 13.0084 15.6757 13.0084 15.5447C13.0084 15.4138 12.9808 15.2844 12.9274 15.1647C12.874 15.045 12.7959 14.9377 12.6983 14.8498C12.6007 14.7619 12.4856 14.6952 12.3605 14.6541C12.2353 14.613 12.1029 14.5984 11.9718 14.6112C11.8417 14.6016 11.7111 14.6188 11.588 14.6617C11.465 14.7046 11.3522 14.7723 11.2567 14.8605C11.1612 14.9488 11.0852 15.0557 11.0333 15.1746C10.9814 15.2934 10.9548 15.4217 10.9551 15.5512Z" fill="#496370"/>
</svg>
