<svg width="159" height="27" viewBox="0 0 159 27" fill="none" xmlns="http://www.w3.org/2000/svg">
<path d="M8.72 20.276H19.268V26H0.8V20.636L11.24 6.308H0.8V0.619998H19.268V5.984L8.72 20.276ZM40.6621 26.252C38.2861 26.252 36.1021 25.7 34.1101 24.596C32.1181 23.468 30.5341 21.92 29.3581 19.952C28.2061 17.96 27.6301 15.716 27.6301 13.22C27.6301 10.724 28.2061 8.492 29.3581 6.524C30.5341 4.532 32.1181 2.984 34.1101 1.88C36.1021 0.775999 38.2861 0.223999 40.6621 0.223999C43.0621 0.223999 45.2461 0.775999 47.2141 1.88C49.2061 2.984 50.7781 4.532 51.9301 6.524C53.0821 8.492 53.6581 10.724 53.6581 13.22C53.6581 15.716 53.0821 17.96 51.9301 19.952C50.7781 21.92 49.2061 23.468 47.2141 24.596C45.2221 25.7 43.0381 26.252 40.6621 26.252ZM40.6621 19.7C42.4621 19.7 43.8781 19.112 44.9101 17.936C45.9661 16.76 46.4941 15.188 46.4941 13.22C46.4941 11.204 45.9661 9.62 44.9101 8.468C43.8781 7.292 42.4621 6.704 40.6621 6.704C38.8381 6.704 37.4101 7.292 36.3781 8.468C35.3461 9.62 34.8301 11.204 34.8301 13.22C34.8301 15.212 35.3461 16.796 36.3781 17.972C37.4101 19.124 38.8381 19.7 40.6621 19.7ZM69.2861 6.272V10.412H77.3861V15.776H69.2861V20.348H78.4661V26H62.2301V0.619998H78.4661V6.272H69.2861ZM94.4087 20.6H102.293V26H87.3527V0.619998H94.4087V20.6ZM117.492 20.6H125.376V26H110.436V0.619998H117.492V20.6ZM149.576 21.86H140.576L139.208 26H131.792L141.044 0.619998H149.18L158.396 26H150.944L149.576 21.86ZM147.812 16.46L145.076 8.252L142.376 16.46H147.812Z" fill="white"/>
</svg>
