<svg width="102" height="19" viewBox="0 0 102 19" fill="none" xmlns="http://www.w3.org/2000/svg">
    <path d="M5.55344 14.184H12.5854V18H0.273437V14.424L7.23344 4.872H0.273437V1.08H12.5854V4.656L5.55344 14.184ZM26.1282 18.168C24.5442 18.168 23.0882 17.8 21.7602 17.064C20.4322 16.312 19.3762 15.28 18.5922 13.968C17.8242 12.64 17.4402 11.144 17.4402 9.48C17.4402 7.816 17.8242 6.328 18.5922 5.016C19.3762 3.688 20.4322 2.656 21.7602 1.92C23.0882 1.184 24.5442 0.816 26.1282 0.816C27.7282 0.816 29.1842 1.184 30.4962 1.92C31.8242 2.656 32.8722 3.688 33.6402 5.016C34.4082 6.328 34.7922 7.816 34.7922 9.48C34.7922 11.144 34.4082 12.64 33.6402 13.968C32.8722 15.28 31.8242 16.312 30.4962 17.064C29.1682 17.8 27.7122 18.168 26.1282 18.168ZM26.1282 13.8C27.3282 13.8 28.2722 13.408 28.9602 12.624C29.6642 11.84 30.0162 10.792 30.0162 9.48C30.0162 8.136 29.6642 7.08 28.9602 6.312C28.2722 5.528 27.3282 5.136 26.1282 5.136C24.9122 5.136 23.9602 5.528 23.2722 6.312C22.5842 7.08 22.2402 8.136 22.2402 9.48C22.2402 10.808 22.5842 11.864 23.2722 12.648C23.9602 13.416 24.9122 13.8 26.1282 13.8ZM44.4908 4.848V7.608H49.8908V11.184H44.4908V14.232H50.6108V18H39.7868V1.08H50.6108V4.848H44.4908ZM60.5192 14.4H65.7752V18H55.8152V1.08H60.5192V14.4ZM75.1883 14.4H80.4443V18H70.4843V1.08H75.1883V14.4ZM95.8574 15.24H89.8574L88.9454 18H84.0014L90.1694 1.08H95.5934L101.737 18H96.7694L95.8574 15.24ZM94.6814 11.64L92.8574 6.168L91.0574 11.64H94.6814Z" fill="white"/>
</svg>
