<svg width="20" height="20" viewBox="0 0 20 20" fill="none" xmlns="http://www.w3.org/2000/svg">
    <path d="M16.6641 5.0013H13.3307V3.33464C13.3307 2.41797 12.5807 1.66797 11.6641 1.66797H8.33073C7.41406 1.66797 6.66406 2.41797 6.66406 3.33464V5.0013H3.33073C2.41406 5.0013 1.66406 5.7513 1.66406 6.66797V16.668C1.66406 17.5846 2.41406 18.3346 3.33073 18.3346H16.6641C17.5807 18.3346 18.3307 17.5846 18.3307 16.668V6.66797C18.3307 5.7513 17.5807 5.0013 16.6641 5.0013ZM8.33073 3.33464H11.6641V5.0013H8.33073V3.33464ZM16.6641 16.668H3.33073V6.66797H16.6641V16.668Z"
          fill="#275778"/>
    <path d="M10.8307 8.33464H9.16406V10.8346H6.66406V12.5013H9.16406V15.0013H10.8307V12.5013H13.3307V10.8346H10.8307V8.33464Z"
          fill="#275778"/>
</svg>
