<svg width="20" height="20" viewBox="0 0 18 18" fill="none" xmlns="http://www.w3.org/2000/svg">
<g clip-path="url(#clip0_6371_109015)">
<path d="M15 4.5H12V3C12 2.175 11.325 1.5 10.5 1.5H7.5C6.675 1.5 6 2.175 6 3V4.5H3C2.175 4.5 1.5 5.175 1.5 6V15C1.5 15.825 2.175 16.5 3 16.5H15C15.825 16.5 16.5 15.825 16.5 15V6C16.5 5.175 15.825 4.5 15 4.5ZM7.5 3H10.5V4.5H7.5V3ZM15 15H3V6H15V15Z" fill="currentColor"/>
<path d="M9.75 7.5H8.25V9.75H6V11.25H8.25V13.5H9.75V11.25H12V9.75H9.75V7.5Z" fill="currentColor"/>
</g>
<defs>
<clipPath id="clip0_6371_109015">
<rect width="18" height="18" fill="currentColor"/>
</clipPath>
</defs>
</svg>
