<svg width="91" height="101" viewBox="0 0 91 101" fill="none" xmlns="http://www.w3.org/2000/svg">
<path d="M80.7917 10.1224H75.75V0.0390625H65.6667V10.1224H25.3333V0.0390625H15.25V10.1224H10.2083C4.6625 10.1224 0.125 14.6599 0.125 20.2057V90.7891C0.125 96.3349 4.6625 100.872 10.2083 100.872H80.7917C86.3375 100.872 90.875 96.3349 90.875 90.7891V20.2057C90.875 14.6599 86.3375 10.1224 80.7917 10.1224ZM80.7917 90.7891H10.2083V40.3724H80.7917V90.7891ZM10.2083 30.2891V20.2057H80.7917V30.2891H10.2083ZM20.2917 50.4557H70.7083V60.5391H20.2917V50.4557ZM20.2917 70.6224H55.5833V80.7057H20.2917V70.6224Z" fill="#00534F"/>
</svg>
