<svg width="25" height="24" viewBox="0 0 25 24" fill="none" xmlns="http://www.w3.org/2000/svg">
<path d="M12.3743 20.9999C12.9083 20.9999 13.4203 20.7892 13.7979 20.4141C14.1754 20.039 14.3875 19.5303 14.3875 18.9999H10.3611C10.3611 19.5303 10.5732 20.039 10.9508 20.4141C11.3283 20.7892 11.8404 20.9999 12.3743 20.9999ZM12.3743 6.91787L11.569 7.07887C10.6594 7.26333 9.84191 7.7544 9.25491 8.46894C8.66792 9.18348 8.34751 10.0776 8.34793 10.9999C8.30348 12.2582 8.14889 13.5102 7.8859 14.7419C7.73296 15.5131 7.50958 16.2689 7.21852 16.9999H17.5301C17.2394 16.2688 17.016 15.513 16.8628 14.7419C16.5998 13.5102 16.4452 12.2582 16.4007 10.9999C16.4009 10.0778 16.0804 9.18388 15.4934 8.46955C14.9065 7.75522 14.0891 7.2643 13.1796 7.07987L12.3743 6.91688V6.91787ZM18.6354 16.9999C18.8079 17.3937 19.078 17.7377 19.4205 17.9999H5.32812C5.67062 17.7377 5.94073 17.3937 6.11327 16.9999C6.87019 15.0859 7.28575 13.0555 7.34133 10.9999C7.34133 9.84652 7.74269 8.72863 8.47741 7.83562C9.21212 6.94261 10.235 6.32939 11.3728 6.09987C11.3587 5.96083 11.3742 5.8204 11.4181 5.68765C11.462 5.5549 11.5335 5.43276 11.6279 5.32913C11.7222 5.2255 11.8374 5.14267 11.966 5.08598C12.0946 5.02929 12.2337 5 12.3743 5C12.515 5 12.6541 5.02929 12.7827 5.08598C12.9112 5.14267 13.0264 5.2255 13.1208 5.32913C13.2152 5.43276 13.2866 5.5549 13.3306 5.68765C13.3745 5.8204 13.3899 5.96083 13.3759 6.09987C14.5136 6.32939 15.5365 6.94261 16.2713 7.83562C17.006 8.72863 17.4073 9.84652 17.4073 10.9999C17.4629 13.0555 17.8785 15.0859 18.6354 16.9999V16.9999Z" fill="#496370"/>
<path d="M16.4014 11C18.6251 11 20.4278 9.20914 20.4278 7C20.4278 4.79086 18.6251 3 16.4014 3C14.1777 3 12.375 4.79086 12.375 7C12.375 9.20914 14.1777 11 16.4014 11Z" fill="#FF5A5A"/>
<path d="M16.4059 10.5C18.3517 10.5 19.929 8.933 19.929 7C19.929 5.067 18.3517 3.5 16.4059 3.5C14.4602 3.5 12.8828 5.067 12.8828 7C12.8828 8.933 14.4602 10.5 16.4059 10.5Z" stroke="white"/>
</svg>
