<svg width="24" height="18" viewBox="0 0 24 18" fill="none" xmlns="http://www.w3.org/2000/svg">
<path d="M19.582 11.1693V2.5026C19.582 1.31094 18.607 0.335938 17.4154 0.335938H2.2487C1.05703 0.335938 0.0820312 1.31094 0.0820312 2.5026V11.1693C0.0820312 12.3609 1.05703 13.3359 2.2487 13.3359H17.4154C18.607 13.3359 19.582 12.3609 19.582 11.1693ZM17.4154 11.1693H2.2487V2.5026H17.4154V11.1693ZM9.83203 3.58594C8.0337 3.58594 6.58203 5.0376 6.58203 6.83594C6.58203 8.63427 8.0337 10.0859 9.83203 10.0859C11.6304 10.0859 13.082 8.63427 13.082 6.83594C13.082 5.0376 11.6304 3.58594 9.83203 3.58594ZM23.9154 3.58594V15.5026C23.9154 16.6943 22.9404 17.6693 21.7487 17.6693H3.33203V15.5026H21.7487V3.58594H23.9154Z" fill="#275778"/>
</svg>
