<svg width="20" height="20" viewBox="0 0 18 18" fill="none" xmlns="http://www.w3.org/2000/svg">
<g clip-path="url(#clip0_6371_108964)">
<path d="M8.99805 4.50342C9.82305 4.50342 10.498 5.17842 10.498 6.00342C10.498 6.82842 9.82305 7.50342 8.99805 7.50342C8.17305 7.50342 7.49805 6.82842 7.49805 6.00342C7.49805 5.17842 8.17305 4.50342 8.99805 4.50342ZM8.99805 12.0034C11.023 12.0034 13.348 12.9709 13.498 13.5034H4.49805C4.67055 12.9634 6.98055 12.0034 8.99805 12.0034ZM8.99805 3.00342C7.34055 3.00342 5.99805 4.34592 5.99805 6.00342C5.99805 7.66092 7.34055 9.00342 8.99805 9.00342C10.6555 9.00342 11.998 7.66092 11.998 6.00342C11.998 4.34592 10.6555 3.00342 8.99805 3.00342ZM8.99805 10.5034C6.99555 10.5034 2.99805 11.5084 2.99805 13.5034V15.0034H14.998V13.5034C14.998 11.5084 11.0005 10.5034 8.99805 10.5034Z" fill="currentColor"/>
</g>
<defs>
<clipPath id="clip0_6371_108964">
<rect width="18" height="18" fill="currentColor"/>
</clipPath>
</defs>
</svg>
