<svg width="20" height="20" viewBox="0 0 20 20" fill="none" xmlns="http://www.w3.org/2000/svg">
    <g id="person_outline">
        <path id="Vector"
              d="M10.0026 4.91536C10.9693 4.91536 11.7526 5.6987 11.7526 6.66536C11.7526 7.63203 10.9693 8.41536 10.0026 8.41536C9.03594 8.41536 8.2526 7.63203 8.2526 6.66536C8.2526 5.6987 9.03594 4.91536 10.0026 4.91536ZM10.0026 12.4154C12.4776 12.4154 15.0859 13.632 15.0859 14.1654V15.082H4.91927V14.1654C4.91927 13.632 7.5276 12.4154 10.0026 12.4154ZM10.0026 3.33203C8.16094 3.33203 6.66927 4.8237 6.66927 6.66536C6.66927 8.50703 8.16094 9.9987 10.0026 9.9987C11.8443 9.9987 13.3359 8.50703 13.3359 6.66536C13.3359 4.8237 11.8443 3.33203 10.0026 3.33203ZM10.0026 10.832C7.7776 10.832 3.33594 11.9487 3.33594 14.1654V16.6654H16.6693V14.1654C16.6693 11.9487 12.2276 10.832 10.0026 10.832Z"
              fill="#275778"/>
    </g>
</svg>
