<svg width="20" height="20" viewBox="0 0 20 20" fill="none" xmlns="http://www.w3.org/2000/svg">
    <g clip-path="url(#clip0_11182_158169)">
        <path d="M10.0052 4.16406V1.66406L6.67188 4.9974L10.0052 8.33073V5.83073C12.7635 5.83073 15.0052 8.0724 15.0052 10.8307C15.0052 13.3057 13.1969 15.3557 10.8385 15.7557V17.4391C14.1302 17.0307 16.6719 14.2307 16.6719 10.8307C16.6719 7.1474 13.6885 4.16406 10.0052 4.16406Z"
              fill="#00534F"/>
        <path d="M5.0026 10.8339C5.0026 9.45885 5.56094 8.20885 6.46927 7.30052L5.28594 6.11719C4.08594 7.32552 3.33594 8.99219 3.33594 10.8339C3.33594 14.2339 5.8776 17.0339 9.16927 17.4422V15.7589C6.81094 15.3589 5.0026 13.3089 5.0026 10.8339Z"
              fill="#00534F"/>
    </g>
    <defs>
        <clipPath id="clip0_11182_158169">
            <rect width="20" height="20" fill="white"/>
        </clipPath>
    </defs>
</svg>
