<svg width="1501" height="348" viewBox="0 0 1501 348" fill="none" xmlns="http://www.w3.org/2000/svg">
<path d="M587.42 68.7349C591.428 73.5878 596.195 77.7595 601.537 81.0879H629.513C634.839 77.7586 639.59 73.5867 643.579 68.7349L644.565 67.4893H586.434L587.42 68.7349Z" fill="#8B8E90"/>
<path d="M578.613 54.4468H652.471C654.242 50.0786 655.479 45.5127 656.156 40.8481H574.928C575.605 45.5127 576.842 50.0786 578.613 54.4468Z" fill="#8B8E90"/>
<path d="M656.722 13.6499H574.352V27.2485H656.722V13.6499Z" fill="#8B8E90"/>
<path d="M643.579 161.383C639.569 156.624 634.82 152.541 629.513 149.29H601.537C596.195 152.618 591.428 156.79 587.42 161.643L586.434 162.889H644.565L643.579 161.643V161.383Z" fill="#8B8E90"/>
<path d="M652.471 176.06H578.613C576.836 180.408 575.598 184.958 574.928 189.607H656.156C655.486 184.958 654.248 180.408 652.471 176.06Z" fill="#8B8E90"/>
<path d="M656.722 203.036H574.352V216.634H656.722V203.036Z" fill="#8B8E90"/>
<path d="M568.081 123.156C557.283 132.371 548.618 143.824 542.685 156.72C536.752 169.617 533.693 183.649 533.721 197.844V230.543H560.918V197.844C560.937 181.342 566.658 165.353 577.112 152.585C582.173 146.415 588.246 141.15 595.07 137.014C585.494 133.624 576.416 128.963 568.081 123.156Z" fill="#8B8E90"/>
<path d="M670.148 32.6471C670.133 44.8538 666.985 56.8523 661.005 67.4941C655.026 78.1359 646.414 87.0646 635.996 93.4256C645.582 96.7948 654.662 101.457 662.986 107.284C667.328 103.555 671.34 99.4562 674.975 95.0346C689.346 77.4522 697.227 55.459 697.294 32.7509V0H670.148V32.6471Z" fill="#8B8E90"/>
<path d="M618.19 102.612C602.004 99.3936 587.435 90.6606 576.967 77.9023C566.499 65.144 560.78 49.1501 560.785 32.6471V0H533.588V32.6471C533.603 55.4394 541.512 77.5229 555.971 95.1421C570.429 112.761 590.545 124.828 612.896 129.291C629.091 132.499 643.672 141.227 654.15 153.987C664.629 166.746 670.355 182.746 670.353 199.256V231.955H697.498V199.256C697.483 176.464 689.574 154.38 675.115 136.761C660.657 119.142 640.541 107.075 618.19 102.612Z" fill="#202020"/>
<path fill-rule="evenodd" clip-rule="evenodd" d="M170.615 167.752C171.232 154.883 167.722 142.154 160.598 131.419C154.426 122.605 146.264 115.368 136.775 110.295C125.222 104.523 113.25 99.63 100.961 95.6581C90.823 92.1287 83.1413 89.1875 77.9164 86.8346C72.8382 84.7918 68.2291 81.7367 64.3697 77.8554C60.8966 74.1533 59.0305 69.2269 59.1794 64.1529C58.9321 61.3153 59.3314 58.4586 60.3472 55.7976C61.3631 53.1366 62.9691 50.7405 65.0444 48.7896C69.4218 45.2072 74.9639 43.3598 80.6153 43.5993C83.9204 43.4116 87.2288 43.9045 90.3357 45.0472C93.4426 46.19 96.2819 47.9584 98.6776 50.2429C103.276 55.1674 106.154 61.4506 106.878 68.1495H166.411C165.885 58.5619 163.36 49.1903 158.998 40.6362C154.636 32.0822 148.534 24.5346 141.083 18.4782C126.186 6.43665 105.996 0.415887 80.6672 0.415887C66.4336 0.190921 52.304 2.87555 39.1447 8.30516C27.6122 13.0537 17.6606 20.9718 10.4423 31.1425C3.39343 41.482 -0.236982 53.7709 0.0616817 66.281C-0.511523 78.904 2.9221 91.3849 9.87137 101.938C15.934 110.66 24.0193 117.784 33.4354 122.7C44.8709 128.264 56.6612 133.066 68.7295 137.077C78.5911 140.537 86.3247 143.478 91.9302 145.9C97.1777 148.143 101.938 151.387 105.944 155.451C107.817 157.357 109.283 159.623 110.256 162.112C111.228 164.601 111.686 167.261 111.602 169.932C111.753 172.814 111.285 175.695 110.228 178.381C109.172 181.067 107.551 183.496 105.477 185.502C100.874 189.575 94.8484 191.664 88.7122 191.316C81.2851 191.583 74.0509 188.917 68.5738 183.893C63.0808 178.516 59.8029 171.275 59.387 163.599H0.684519C1.03827 173.718 3.65576 183.628 8.34447 192.601C13.0332 201.574 19.6738 209.382 27.778 215.451C44.3524 227.907 65.425 234.136 90.996 234.136C105.951 234.567 120.797 231.473 134.335 225.105C145.491 219.796 154.893 211.402 161.429 200.918C167.496 190.924 170.676 179.443 170.615 167.752ZM405.269 117.457C405.685 96.7785 400.75 76.3431 390.944 58.1322C381.502 41.0333 367.195 27.1236 349.837 18.1668C330.146 8.29653 308.326 3.42991 286.307 3.9972H200.252V231.904H286.307C308.316 232.449 330.109 227.451 349.681 217.371C367.2 208.274 381.644 194.209 391.204 176.938C400.985 158.662 405.917 138.183 405.529 117.457H405.269ZM281.48 182.544H255.529V52.319H281.48C302.968 52.319 319.681 58.0111 331.619 69.3951C343.557 80.7792 349.526 96.8 349.526 117.457C349.526 138.219 343.557 154.222 331.619 165.468C319.681 176.714 302.968 182.406 281.48 182.544ZM435.581 3.9972V231.904H490.702V3.9972H435.581Z" fill="#DE1C4E"/>
<path fill-rule="evenodd" clip-rule="evenodd" d="M794.254 3.94525H739.133V231.852H867.749V189.603H794.254V3.94525ZM1047.65 231.852H1106.14L1023.09 5.55424H959.306L875.846 231.852H933.873L948.043 190.329H1033.48L1047.65 231.852ZM962.213 148.34L990.915 64.5162L1019.31 148.34H962.213ZM1263.25 114.499C1274.6 112.019 1284.74 105.693 1291.95 96.5923C1299.51 86.7883 1303.4 74.6533 1302.96 62.2844C1303.43 54.0975 1301.95 45.9158 1298.65 38.4096C1295.35 30.9035 1290.31 24.2865 1283.96 19.101C1271.26 8.96255 1253.32 3.91065 1230.14 3.94525H1126.9V231.852H1232.94C1257.16 231.852 1275.81 226.367 1288.89 215.399C1295.42 209.763 1300.58 202.708 1303.96 194.773C1307.34 186.838 1308.86 178.234 1308.41 169.62C1308.58 156.858 1304.31 144.433 1296.31 134.482C1288.03 124.242 1276.46 117.183 1263.56 114.499H1263.25ZM1181.76 48.1148H1217.21C1236.76 48.1148 1246.54 56.2809 1246.54 72.6131C1246.54 88.9107 1236.99 97.1114 1217.89 97.1114H1181.56V48.1148H1181.76ZM1221.11 186.852H1181.76V135.779H1220.79C1229.01 135.262 1237.14 137.732 1243.68 142.734C1246.37 145.119 1248.49 148.079 1249.89 151.394C1251.28 154.709 1251.91 158.295 1251.73 161.886C1251.73 178.668 1241.52 187.059 1221.11 187.059V186.852ZM1499.93 167.492C1500.56 154.629 1497.07 141.9 1489.96 131.16C1483.77 122.359 1475.59 115.14 1466.09 110.087C1454.57 104.272 1442.61 99.3611 1430.33 95.3986C1422.42 92.814 1414.65 89.7992 1407.07 86.3674C1402.11 84.4314 1397.58 81.5392 1393.74 77.8553C1390.27 74.1502 1388.4 69.2259 1388.54 64.1529C1388.36 61.3425 1388.8 58.5255 1389.83 55.9048C1390.86 53.2841 1392.46 50.9249 1394.51 48.9972C1398.9 45.4233 1404.43 43.5771 1410.08 43.8068C1413.34 43.6134 1416.6 44.0792 1419.66 45.1763C1422.73 46.2733 1425.55 47.979 1427.94 50.1909C1432.59 55.0828 1435.47 61.3833 1436.14 68.0975H1495.83C1495.29 58.512 1492.76 49.1436 1488.4 40.5909C1484.04 32.0381 1477.94 24.4892 1470.5 18.4262C1455.52 6.38469 1435.34 0.381232 1409.98 0.415834C1395.75 0.170262 1381.61 2.85567 1368.46 8.30511C1356.89 13.0153 1346.91 20.9402 1339.7 31.1425C1332.67 41.4879 1329.04 53.7727 1329.32 66.2809C1328.75 78.8872 1332.19 91.3505 1339.13 101.886C1345.15 110.63 1353.22 117.76 1362.65 122.648C1374.09 128.223 1385.9 133.026 1397.99 137.025C1407.85 140.485 1415.59 143.444 1421.19 145.9C1426.44 148.125 1431.2 151.351 1435.21 155.399C1437.06 157.315 1438.52 159.583 1439.49 162.07C1440.46 164.556 1440.93 167.211 1440.86 169.88C1440.98 172.758 1440.49 175.629 1439.44 178.309C1438.38 180.99 1436.78 183.422 1434.74 185.45C1430.11 189.48 1424.1 191.547 1417.97 191.212C1410.53 191.504 1403.27 188.836 1397.78 183.79C1392.32 178.389 1389.05 171.162 1388.6 163.495H1329.95C1330.23 173.68 1332.81 183.668 1337.5 192.711C1342.2 201.754 1348.87 209.617 1357.04 215.71C1373.58 228.167 1394.63 234.412 1420.21 234.447C1435.18 234.879 1450.04 231.785 1463.6 225.416C1474.72 220.075 1484.09 211.688 1490.64 201.229C1496.76 191.241 1499.95 179.727 1499.83 168.011L1499.93 167.492Z" fill="#DE1C4E"/>
<path d="M47.4482 287.233C47.2679 287.498 47.0389 287.727 46.7734 287.907C46.4918 288.124 46.1425 288.235 45.7873 288.219C45.2312 288.299 44.6642 288.19 44.1783 287.907C43.4701 287.37 42.7242 286.884 41.9464 286.454C40.9271 285.859 39.8486 285.372 38.7285 285.001C37.2393 284.51 35.6763 284.282 34.1091 284.326C32.5935 284.294 31.0837 284.522 29.6454 285.001C28.4471 285.411 27.3375 286.045 26.3755 286.869C25.5164 287.623 24.8416 288.564 24.4032 289.62C23.9832 290.695 23.7718 291.84 23.7804 292.994C23.7199 294.382 24.1215 295.751 24.9222 296.887C25.736 297.964 26.7602 298.864 27.9326 299.534C29.3023 300.299 30.7456 300.925 32.2406 301.402L37.4309 303.063C39.0918 303.634 40.7527 304.309 42.3098 304.983C43.8731 305.684 45.3246 306.611 46.6177 307.734C47.8999 308.844 48.9419 310.204 49.68 311.731C50.4763 313.582 50.8657 315.582 50.8219 317.596C50.7315 319.884 50.2213 322.136 49.3167 324.24C48.4744 326.383 47.1879 328.323 45.5419 329.933C43.8958 331.544 41.9276 332.787 39.7665 333.582C37.2333 334.552 34.5376 335.028 31.8253 334.983C28.4364 335.023 25.0769 334.351 21.9637 333.011C19.0986 331.809 16.504 330.044 14.334 327.821L16.5139 324.24C16.7156 323.96 16.961 323.715 17.2406 323.513C17.5482 323.309 17.9094 323.2 18.2786 323.201C18.9794 323.289 19.6339 323.599 20.1471 324.084C20.97 324.795 21.8368 325.454 22.7423 326.056C23.9683 326.799 25.2529 327.442 26.5831 327.977C28.3491 328.599 30.2128 328.898 32.0849 328.859C33.7101 328.884 35.3268 328.62 36.8599 328.08C38.181 327.636 39.399 326.93 40.4413 326.004C41.4182 325.113 42.1812 324.013 42.6731 322.786C43.2049 321.467 43.4695 320.056 43.4516 318.634C43.5235 317.164 43.1234 315.709 42.3098 314.482C41.5129 313.375 40.4859 312.455 39.2994 311.783C37.9343 311.008 36.4901 310.381 34.9914 309.914L30.1125 308.357C28.3417 307.854 26.6075 307.23 24.9222 306.489C23.3902 305.732 22.0025 304.713 20.8219 303.478C19.5248 302.321 18.482 300.907 17.7596 299.326C16.2361 295.475 16.2361 291.188 17.7596 287.336C18.5948 285.438 19.801 283.725 21.3073 282.299C22.8136 280.873 24.5897 279.762 26.5312 279.032C28.8795 278.122 31.3835 277.681 33.9015 277.734C36.8209 277.692 39.7234 278.185 42.4655 279.188C44.9822 280.154 47.2774 281.619 49.2129 283.496L47.4482 287.233Z" fill="#ED2B2D"/>
<path d="M113.623 322.837C113.833 322.833 114.04 322.878 114.229 322.968C114.419 323.058 114.584 323.191 114.713 323.356L117.723 326.574C115.409 329.218 112.561 331.34 109.367 332.803C105.639 334.362 101.625 335.122 97.5851 335.035C93.8274 335.082 90.0999 334.358 86.6335 332.907C83.4455 331.596 80.5776 329.613 78.2252 327.093C75.947 324.433 74.1866 321.37 73.0349 318.062C71.7556 314.339 71.1236 310.424 71.1664 306.488C71.1187 302.521 71.805 298.579 73.1906 294.862C74.4728 291.489 76.4337 288.415 78.9519 285.83C81.4875 283.3 84.5057 281.306 87.8273 279.965C91.461 278.533 95.3406 277.827 99.246 277.889C102.801 277.82 106.332 278.473 109.627 279.81C112.573 281.031 115.267 282.791 117.568 285L115.128 288.477C114.948 288.71 114.738 288.92 114.506 289.1C114.191 289.283 113.831 289.373 113.467 289.36C113.097 289.325 112.741 289.2 112.429 288.997L111.08 287.907L109.056 286.868C108.264 286.408 107.43 286.026 106.564 285.727C105.484 285.327 104.373 285.014 103.243 284.792C101.784 284.553 100.309 284.432 98.8308 284.429C96.02 284.388 93.23 284.917 90.6301 285.986C88.2086 286.983 86.0179 288.467 84.1941 290.346C82.3557 292.37 80.9279 294.732 79.9899 297.301C77.9838 303.297 77.9838 309.783 79.9899 315.779C80.9128 318.331 82.3033 320.69 84.0903 322.734C85.8162 324.596 87.9227 326.065 90.2667 327.042C92.6861 328.035 95.2813 328.529 97.8965 328.495C99.3831 328.583 100.874 328.583 102.36 328.495C103.616 328.306 104.851 327.993 106.045 327.561C107.165 327.161 108.229 326.62 109.211 325.952C110.271 325.29 111.262 324.525 112.17 323.668C112.341 323.436 112.559 323.243 112.809 323.1C113.059 322.957 113.337 322.867 113.623 322.837Z" fill="#ED2B2D"/>
<path d="M150.583 334.62H143.109V278.513H150.583V334.62Z" fill="#ED2B2D"/>
<path d="M214.108 278.513V284.69H187.274V303.479H208.97V309.396H187.274V328.496H214.108V334.62H179.645V278.513H214.108Z" fill="#ED2B2D"/>
<path d="M244.42 278.77C244.847 279.042 245.218 279.395 245.51 279.808L277.898 321.902V278.511H284.541V334.618H280.337C279.818 334.632 279.303 334.525 278.832 334.307C278.377 334.03 277.987 333.658 277.69 333.217L245.354 291.175V334.618H238.814V278.511H242.707C243.291 278.456 243.879 278.545 244.42 278.77Z" fill="#ED2B2D"/>
<path d="M350.411 322.837C350.628 322.833 350.843 322.877 351.041 322.967C351.238 323.057 351.413 323.19 351.553 323.356L354.511 326.574C352.228 329.228 349.394 331.353 346.207 332.802C342.462 334.366 338.43 335.126 334.373 335.034C330.616 335.076 326.89 334.352 323.421 332.906C320.242 331.608 317.388 329.623 315.065 327.093C312.769 324.445 311.007 321.379 309.875 318.062C308.578 314.342 307.928 310.427 307.954 306.487C307.898 302.515 308.603 298.569 310.03 294.861C311.282 291.497 313.207 288.424 315.688 285.83C318.21 283.283 321.232 281.286 324.563 279.965C328.18 278.536 332.042 277.831 335.93 277.889C339.571 277.792 343.193 278.445 346.57 279.809C349.503 281.056 352.192 282.813 354.511 285L352.072 288.477C351.891 288.71 351.682 288.919 351.449 289.1C351.135 289.283 350.775 289.373 350.411 289.359C350.026 289.318 349.654 289.194 349.321 288.996L347.868 287.906C347.349 287.543 346.778 287.128 346.051 286.712C345.26 286.252 344.425 285.869 343.56 285.571C342.464 285.165 341.335 284.852 340.186 284.636C338.745 284.395 337.287 284.273 335.826 284.273C332.999 284.237 330.193 284.767 327.574 285.83C325.168 286.828 322.994 288.312 321.19 290.19C319.316 292.188 317.883 294.557 316.985 297.145C314.979 303.141 314.979 309.627 316.985 315.622C317.803 318.225 319.126 320.642 320.878 322.733C322.585 324.594 324.674 326.064 327.003 327.041C329.425 328.025 332.018 328.519 334.632 328.494C336.136 328.583 337.644 328.583 339.148 328.494C340.403 328.3 341.637 327.987 342.833 327.56C343.953 327.161 345.017 326.62 345.999 325.951C347.041 325.288 348.015 324.523 348.906 323.667C349.087 323.434 349.314 323.24 349.573 323.098C349.832 322.955 350.117 322.866 350.411 322.837Z" fill="#ED2B2D"/>
<path d="M412.739 278.513V284.69H385.905V303.479H407.601V309.396H385.905V328.496H412.739V334.62H378.275V278.513H412.739Z" fill="#ED2B2D"/>
<path d="M468.639 274.62H473.829V347.752H468.639V274.62Z" fill="#202020"/>
<path d="M581.179 306.488C581.219 310.383 580.551 314.252 579.207 317.907C577.938 321.189 576.033 324.188 573.601 326.731C571.112 329.193 568.144 331.119 564.881 332.388C561.338 333.838 557.55 334.596 553.722 334.62H532.961V278.513H553.722C557.554 278.464 561.36 279.151 564.933 280.537C568.207 281.786 571.178 283.714 573.653 286.194C576.085 288.737 577.99 291.736 579.259 295.018C580.585 298.694 581.235 302.58 581.179 306.488ZM573.445 306.488C573.498 303.352 573.024 300.229 572.044 297.25C571.198 294.715 569.837 292.383 568.047 290.399C566.322 288.512 564.193 287.039 561.819 286.091C559.221 285.088 556.455 284.594 553.67 284.637H540.331V328.288H553.722C556.51 328.314 559.277 327.803 561.871 326.783C564.242 325.852 566.371 324.397 568.099 322.527C569.889 320.542 571.249 318.21 572.096 315.675C573.054 312.71 573.51 309.605 573.445 306.488Z" fill="#2866B1"/>
<path d="M649.631 334.62H643.818C643.222 334.632 642.64 334.45 642.157 334.101C641.744 333.751 641.424 333.306 641.223 332.804L636.032 319.309H610.963L605.773 332.804C605.555 333.296 605.216 333.725 604.787 334.049C604.336 334.427 603.765 334.63 603.178 334.62H597.312L619.683 278.721H627.364L649.631 334.62ZM613.299 313.859H634.06L625.288 291.126C624.614 289.431 624.043 287.698 623.575 285.935C623.448 286.957 623.168 287.954 622.745 288.894C622.485 289.776 622.226 290.607 621.966 291.281L613.299 313.859Z" fill="#2866B1"/>
<path d="M703.471 278.513V284.845H685.409V334.62H677.883V284.845H659.717V278.513H703.471Z" fill="#2866B1"/>
<path d="M765.934 334.62H760.121C759.525 334.639 758.94 334.457 758.46 334.101C758.048 333.751 757.727 333.306 757.526 332.804L752.336 319.309H727.267L722.076 332.804C721.897 333.303 721.571 333.737 721.142 334.049C720.692 334.427 720.121 334.63 719.533 334.62H713.668L736.038 278.721H743.72L765.934 334.62ZM729.602 313.859H750.364L741.592 291.126C740.918 289.431 740.346 287.698 739.879 285.935C739.751 286.957 739.471 287.954 739.049 288.894C738.789 289.776 738.53 290.607 738.27 291.281L729.602 313.859Z" fill="#2866B1"/>
<path d="M818.205 274.62H823.395V347.752H818.205V274.62Z" fill="#202020"/>
<path d="M891.34 334.62H883.762V278.513H891.34V334.62Z" fill="#E8B856"/>
<path d="M925.563 278.771C925.99 279.043 926.36 279.395 926.653 279.809L959.04 321.902C958.991 321.246 958.991 320.586 959.04 319.93C959.04 319.307 959.04 318.684 959.04 318.113V278.511H965.684V334.618H961.843C961.324 334.632 960.809 334.525 960.338 334.307C959.866 334.034 959.459 333.662 959.144 333.217L926.808 291.176V334.567H920.217V278.511H924.11C924.606 278.5 925.1 278.588 925.563 278.771Z" fill="#E8B856"/>
<path d="M998.308 278.773C998.753 279.04 999.141 279.393 999.45 279.811L1031.79 321.904V278.409H1038.38V334.62H1034.59C1034.07 334.644 1033.55 334.537 1033.08 334.309C1032.6 334.049 1032.19 333.675 1031.89 333.219L999.554 291.177V334.62H992.91V278.513H996.803C997.317 278.49 997.831 278.579 998.308 278.773Z" fill="#E8B856"/>
<path d="M1117.75 306.488C1117.79 310.42 1117.1 314.326 1115.72 318.01C1114.5 321.375 1112.59 324.45 1110.12 327.042C1107.66 329.591 1104.69 331.59 1101.4 332.907C1094.16 335.674 1086.16 335.674 1078.92 332.907C1075.66 331.576 1072.71 329.579 1070.26 327.042C1067.79 324.438 1065.86 321.367 1064.6 318.01C1063.26 314.317 1062.6 310.415 1062.63 306.488C1062.59 302.56 1063.26 298.657 1064.6 294.965C1065.85 291.586 1067.78 288.496 1070.26 285.882C1072.69 283.313 1075.65 281.296 1078.92 279.965C1086.16 277.198 1094.16 277.198 1101.4 279.965C1104.7 281.282 1107.67 283.301 1110.12 285.882C1112.6 288.489 1114.5 291.582 1115.72 294.965C1117.11 298.647 1117.8 302.555 1117.75 306.488ZM1109.96 306.488C1110.01 303.352 1109.54 300.229 1108.56 297.249C1107.74 294.674 1106.37 292.303 1104.56 290.294C1102.83 288.408 1100.7 286.921 1098.34 285.934C1095.74 284.909 1092.98 284.397 1090.19 284.429C1087.38 284.402 1084.6 284.913 1081.99 285.934C1079.62 286.921 1077.49 288.408 1075.76 290.294C1073.97 292.317 1072.61 294.683 1071.76 297.249C1069.9 303.25 1069.9 309.673 1071.76 315.675C1072.6 318.23 1073.96 320.582 1075.76 322.578C1077.48 324.479 1079.61 325.969 1081.99 326.938C1084.6 327.959 1087.38 328.47 1090.19 328.443C1092.98 328.475 1095.74 327.963 1098.34 326.938C1100.71 325.969 1102.84 324.479 1104.56 322.578C1106.38 320.595 1107.75 318.239 1108.56 315.675C1109.48 312.703 1109.91 309.598 1109.81 306.488H1109.96Z" fill="#E8B856"/>
<path d="M1133.1 278.512H1139.12C1139.7 278.478 1140.28 278.663 1140.73 279.031C1141.17 279.348 1141.51 279.779 1141.72 280.276L1157.29 319.723C1157.65 320.605 1157.96 321.591 1158.27 322.629C1158.58 323.668 1158.84 324.757 1159.16 325.847C1159.36 324.762 1159.62 323.688 1159.93 322.629C1160.17 321.639 1160.49 320.668 1160.87 319.723L1176.44 280.276C1176.63 279.8 1176.96 279.387 1177.37 279.083C1177.82 278.705 1178.39 278.502 1178.98 278.512H1185.11L1162.84 334.619H1155.99L1133.1 278.512Z" fill="#E8B856"/>
<path d="M1247.08 334.62H1241.27C1240.67 334.639 1240.09 334.457 1239.61 334.101C1239.2 333.751 1238.88 333.306 1238.67 332.804L1233.48 319.309H1208.42L1203.22 332.804C1203.05 333.303 1202.72 333.737 1202.29 334.049C1201.84 334.427 1201.27 334.63 1200.68 334.62H1194.82L1217.19 278.721H1224.87L1247.08 334.62ZM1210.75 313.859H1231.51L1222.74 291.126C1222.07 289.431 1221.49 287.698 1221.03 285.935C1220.9 286.957 1220.62 287.954 1220.2 288.894C1219.94 289.776 1219.68 290.607 1219.42 291.281L1210.75 313.859Z" fill="#E8B856"/>
<path d="M1300.46 278.513V284.845H1282.61V334.62H1274.82V284.845H1256.65V278.513H1300.46Z" fill="#E8B856"/>
<path d="M1331.4 334.62H1324.13V278.513H1331.65L1331.4 334.62Z" fill="#E8B856"/>
<path d="M1412.37 306.488C1412.43 310.417 1411.76 314.323 1410.4 318.01C1409.13 321.355 1407.23 324.422 1404.79 327.042C1402.32 329.571 1399.35 331.567 1396.07 332.907C1388.84 335.674 1380.83 335.674 1373.6 332.907C1370.32 331.567 1367.36 329.571 1364.88 327.042C1362.44 324.422 1360.54 321.355 1359.27 318.01C1357.91 314.323 1357.24 310.417 1357.3 306.488C1357.24 302.558 1357.91 298.65 1359.27 294.965C1360.53 291.599 1362.43 288.513 1364.88 285.882C1367.34 283.324 1370.31 281.309 1373.6 279.965C1380.83 277.198 1388.84 277.198 1396.07 279.965C1399.36 281.309 1402.33 283.324 1404.79 285.882C1407.24 288.513 1409.14 291.599 1410.4 294.965C1411.77 298.65 1412.44 302.558 1412.37 306.488ZM1404.64 306.488C1404.69 303.352 1404.22 300.229 1403.24 297.249C1402.39 294.683 1401.03 292.317 1399.24 290.294C1397.5 288.408 1395.38 286.921 1393.01 285.934C1387.75 283.926 1381.93 283.926 1376.66 285.934C1374.29 286.921 1372.17 288.408 1370.43 290.294C1368.63 292.314 1367.25 294.68 1366.38 297.249C1364.53 303.25 1364.53 309.673 1366.38 315.675C1367.24 318.233 1368.62 320.585 1370.43 322.578C1372.16 324.479 1374.28 325.969 1376.66 326.938C1381.93 328.946 1387.75 328.946 1393.01 326.938C1395.39 325.969 1397.52 324.479 1399.24 322.578C1401.04 320.582 1402.4 318.23 1403.24 315.675C1404.19 312.709 1404.65 309.604 1404.58 306.488H1404.64Z" fill="#E8B856"/>
<path d="M1442.11 278.771C1442.54 279.043 1442.91 279.396 1443.2 279.81L1475.59 321.903V278.512H1482.23V334.619H1478.39C1477.87 334.633 1477.36 334.526 1476.88 334.308C1476.43 334.031 1476.04 333.659 1475.74 333.218L1443.41 291.176V334.619H1436.76V278.512H1440.66C1441.15 278.497 1441.65 278.585 1442.11 278.771Z" fill="#E8B856"/>
</svg>
