<svg width="20" height="20" viewBox="0 0 20 20" fill="none" xmlns="http://www.w3.org/2000/svg">
    <g clip-path="url(#clip0_16872_88887)">
        <path d="M15 13.4013C14.3667 13.4013 13.8 13.6513 13.3667 14.043L7.425 10.5846C7.46667 10.393 7.5 10.2013 7.5 10.0013C7.5 9.8013 7.46667 9.60964 7.425 9.41797L13.3 5.99297C13.75 6.40964 14.3417 6.66797 15 6.66797C16.3833 6.66797 17.5 5.5513 17.5 4.16797C17.5 2.78464 16.3833 1.66797 15 1.66797C13.6167 1.66797 12.5 2.78464 12.5 4.16797C12.5 4.36797 12.5333 4.55964 12.575 4.7513L6.7 8.1763C6.25 7.75964 5.65833 7.5013 5 7.5013C3.61667 7.5013 2.5 8.61797 2.5 10.0013C2.5 11.3846 3.61667 12.5013 5 12.5013C5.65833 12.5013 6.25 12.243 6.7 11.8263L12.6333 15.293C12.5917 15.468 12.5667 15.6513 12.5667 15.8346C12.5667 17.1763 13.6583 18.268 15 18.268C16.3417 18.268 17.4333 17.1763 17.4333 15.8346C17.4333 14.493 16.3417 13.4013 15 13.4013Z" fill="white"/>
    </g>
    <defs>
        <clipPath id="clip0_16872_88887">
            <rect width="20" height="20" fill="white"/>
        </clipPath>
    </defs>
</svg>
