<svg width="18" height="22" viewBox="0 0 18 22" fill="none" xmlns="http://www.w3.org/2000/svg">
    <path d="M11.1654 0.164062H2.4987C1.30703 0.164062 0.332031 1.13906 0.332031 2.33073V19.6641C0.332031 20.8557 1.30703 21.8307 2.4987 21.8307H15.4987C16.6904 21.8307 17.6654 20.8557 17.6654 19.6641V6.66406L11.1654 0.164062ZM2.4987 19.6641V2.33073H10.082V6.66406H15.4987V19.6641H2.4987ZM7.91536 18.5807H10.082V17.4974H11.1654C11.7612 17.4974 12.2487 17.0099 12.2487 16.4141V13.1641C12.2487 12.5682 11.7612 12.0807 11.1654 12.0807H7.91536V10.9974H12.2487V8.83073H10.082V7.7474H7.91536V8.83073H6.83203C6.2362 8.83073 5.7487 9.31823 5.7487 9.91406V13.1641C5.7487 13.7599 6.2362 14.2474 6.83203 14.2474H10.082V15.3307H5.7487V17.4974H7.91536V18.5807Z"
          fill="#275778"/>
</svg>
