<svg width="20" height="20" viewBox="0 0 20 20" fill="none" xmlns="http://www.w3.org/2000/svg">
    <g id="update">
        <path id="Vector"
              d="M9.16667 6.66667V10.8333L12.7083 12.9333L13.35 11.8667L10.4167 10.125V6.66667H9.16667ZM17.5 8.33333V2.5L15.3 4.7C13.95 3.34167 12.075 2.5 10 2.5C5.85833 2.5 2.5 5.85833 2.5 10C2.5 14.1417 5.85833 17.5 10 17.5C14.1417 17.5 17.5 14.1417 17.5 10H15.8333C15.8333 13.2167 13.2167 15.8333 10 15.8333C6.78333 15.8333 4.16667 13.2167 4.16667 10C4.16667 6.78333 6.78333 4.16667 10 4.16667C11.6083 4.16667 13.0667 4.825 14.125 5.875L11.6667 8.33333H17.5Z"
              fill="#275778"/>
    </g>
</svg>
