<svg width="24" height="24" viewBox="0 0 24 24" fill="none" xmlns="http://www.w3.org/2000/svg">
<path d="M15.0002 20H4.33416C4.15824 20.003 3.98349 19.9704 3.82036 19.9045C3.65724 19.8386 3.50903 19.7406 3.38457 19.6162C3.26011 19.4918 3.16204 19.3437 3.096 19.1806C3.02995 19.0176 2.99733 18.8429 3.00017 18.667C3.08197 17.4929 3.55077 16.3791 4.33318 15.5C5.00378 14.7634 5.83096 14.1863 6.75383 13.8113C7.67671 13.4363 8.67185 13.2729 9.66619 13.333C10.5062 13.3248 11.3429 13.4404 12.1492 13.676C12.0495 14.0743 11.9991 14.4834 11.9992 14.894C11.9992 14.94 11.9992 14.986 11.9992 15.031C11.2468 14.7781 10.4568 14.655 9.66313 14.667C8.86187 14.6103 8.05807 14.7337 7.3106 15.0278C6.56312 15.322 5.89096 15.7794 5.34319 16.3669C4.77477 17.0069 4.42094 17.8087 4.33123 18.6599H4.33818H4.36016H13.7172C14.3179 19.182 15.0343 19.5536 15.8072 19.7439C15.5653 19.8985 15.287 19.9868 15.0002 20ZM9.66716 12C8.87604 12 8.10267 11.7654 7.44487 11.3259C6.78708 10.8864 6.27436 10.2616 5.97161 9.53074C5.66886 8.79984 5.58973 7.99563 5.74407 7.2197C5.89841 6.44378 6.27938 5.73102 6.83879 5.17161C7.3982 4.6122 8.11084 4.23122 8.88677 4.07688C9.66269 3.92254 10.467 4.00167 11.1979 4.30442C11.9288 4.60717 12.5536 5.12001 12.9931 5.77781C13.4326 6.43561 13.6672 7.20885 13.6672 7.99998C13.6672 8.52535 13.5637 9.04562 13.3626 9.53098C13.1615 10.0164 12.8668 10.4574 12.4953 10.8288C12.1237 11.2003 11.6826 11.4948 11.1972 11.6958C10.7118 11.8967 10.1916 12.0001 9.66619 12H9.66716ZM9.66716 5.33396C9.13968 5.33396 8.62406 5.49037 8.18547 5.78343C7.74689 6.07648 7.40503 6.49312 7.20317 6.98045C7.00131 7.46778 6.94853 8.00387 7.05144 8.52122C7.15435 9.03857 7.40831 9.51395 7.7813 9.88694C8.15429 10.2599 8.62955 10.5138 9.1469 10.6167C9.66425 10.7196 10.2005 10.6669 10.6878 10.4651C11.1751 10.2632 11.5916 9.92123 11.8847 9.48264C12.1777 9.04406 12.3342 8.52844 12.3342 8.00095C12.3339 7.29344 12.0527 6.61501 11.5524 6.11472C11.0521 5.61443 10.3737 5.33325 9.66619 5.33299L9.66716 5.33396Z" fill="currentColor"/>
<path d="M17.2521 16.4036C17.0207 16.4036 16.7945 16.335 16.6021 16.2064C16.4097 16.0779 16.2597 15.8952 16.1712 15.6814C16.0826 15.4676 16.0594 15.2323 16.1046 15.0054C16.1497 14.7784 16.2612 14.5699 16.4248 14.4063C16.5884 14.2427 16.7969 14.1313 17.0239 14.0861C17.2508 14.041 17.4861 14.0641 17.6999 14.1527C17.9136 14.2412 18.0964 14.3912 18.2249 14.5836C18.3535 14.776 18.4221 15.0022 18.4221 15.2336C18.4221 15.5439 18.2988 15.8415 18.0794 16.0609C17.86 16.2804 17.5624 16.4036 17.2521 16.4036ZM19.7361 15.5576C19.7505 15.4502 19.7582 15.342 19.7591 15.2336C19.758 15.1219 19.7503 15.0104 19.7361 14.8996L20.4411 14.3546C20.4719 14.3294 20.4928 14.2941 20.5002 14.2549C20.5075 14.2158 20.5007 14.1753 20.4811 14.1406L19.8131 12.9836C19.7941 12.9495 19.7635 12.9232 19.7268 12.9097C19.6901 12.8961 19.6498 12.8961 19.6131 12.9096L18.7811 13.2436C18.6084 13.1093 18.4184 12.999 18.2161 12.9156L18.0881 12.0306C18.0813 11.9913 18.0608 11.9557 18.0302 11.9301C17.9996 11.9045 17.961 11.8905 17.9211 11.8906H16.5831C16.5432 11.8905 16.5046 11.9045 16.474 11.9301C16.4435 11.9557 16.423 11.9913 16.4161 12.0306L16.2921 12.9166C16.0905 13.0001 15.9012 13.1104 15.7291 13.2446L14.8951 12.9106C14.8584 12.8971 14.8181 12.8971 14.7814 12.9107C14.7448 12.9242 14.7142 12.9505 14.6951 12.9846L14.0231 14.1406C14.0027 14.1751 13.9954 14.2158 14.0028 14.2552C14.0102 14.2945 14.0316 14.3299 14.0631 14.3546L14.7681 14.8996C14.7539 15.0104 14.7462 15.1219 14.7451 15.2336C14.746 15.342 14.7537 15.4502 14.7681 15.5576L14.0631 16.1126C14.0316 16.1374 14.0102 16.1727 14.0028 16.2121C13.9954 16.2515 14.0027 16.2922 14.0231 16.3266L14.6921 17.4836C14.7117 17.5172 14.7424 17.5429 14.7789 17.5564C14.8153 17.5699 14.8554 17.5703 14.8921 17.5576L15.7291 17.2196C15.9009 17.3561 16.0911 17.4675 16.2941 17.5506L16.4181 18.4366C16.425 18.4759 16.4455 18.5115 16.476 18.5371C16.5066 18.5628 16.5452 18.5767 16.5851 18.5766H17.9211C17.961 18.5767 17.9996 18.5628 18.0302 18.5371C18.0608 18.5115 18.0813 18.4759 18.0881 18.4366L18.2121 17.5506C18.4145 17.4662 18.6045 17.3549 18.7771 17.2196L19.6091 17.5576C19.6459 17.5703 19.6859 17.5699 19.7224 17.5564C19.7588 17.5429 19.7895 17.5172 19.8091 17.4836L20.4781 16.3266C20.4977 16.292 20.5045 16.2515 20.4972 16.2123C20.4898 16.1732 20.4689 16.1379 20.4381 16.1126L19.7361 15.5576Z" fill="currentColor"/>
</svg>
