<svg width="33" height="31" viewBox="0 0 33 31" fill="none" xmlns="http://www.w3.org/2000/svg">
    <path d="M28.7501 4.56581C25.9748 1.62178 22.0921 0 17.8204 0C9.0968 0 1.37961 6.89792 0.617121 15.3748C0.24137 19.547 1.57078 23.4752 4.35925 26.4342C7.13454 29.3782 11.0151 31 15.289 31C24.0126 31 31.7298 24.1021 32.4923 15.6252C32.868 11.453 31.5386 7.52481 28.7501 4.56581ZM21.011 13.4728L18.6444 15.5888L20.5473 17.6171C21.0989 18.2055 21.0571 19.1169 20.4506 19.6518C20.1672 19.9043 19.809 20.0284 19.453 20.0284C19.0509 20.0284 18.651 19.87 18.3587 19.5598L16.4624 17.5401L14.1024 19.6497C13.819 19.9043 13.4586 20.0284 13.1004 20.0284C12.7005 20.0284 12.3006 19.8722 12.0083 19.5641C11.4546 18.9778 11.4941 18.0664 12.0962 17.5272L14.465 15.4112L12.5621 13.3829C12.0105 12.7945 12.0523 11.8852 12.6565 11.3482C13.2608 10.8112 14.1991 10.854 14.7506 11.4402L16.647 13.4599L19.0048 11.3525C19.6068 10.8133 20.5451 10.8518 21.0989 11.4359C21.6548 12.0222 21.6152 12.9336 21.011 13.4728Z"
          fill="#FF6381"/>
</svg>
