<svg width="24" height="24" viewBox="0 0 24 24" fill="none" xmlns="http://www.w3.org/2000/svg">
    <g clip-path="url(#clip0_2068_3838)">
        <path d="M21 12.22C21 6.73 16.74 3 12 3C7.31 3 3 6.65 3 12.28C2.4 12.62 2 13.26 2 14V16C2 17.1 2.9 18 4 18H5V11.9C5 8.03 8.13 4.9 12 4.9C15.87 4.9 19 8.03 19 11.9V19H11V21H19C20.1 21 21 20.1 21 19V17.78C21.59 17.47 22 16.86 22 16.14V13.84C22 13.14 21.59 12.53 21 12.22Z"
              fill="currentColor"/>
        <path d="M9 14C9.55228 14 10 13.5523 10 13C10 12.4477 9.55228 12 9 12C8.44772 12 8 12.4477 8 13C8 13.5523 8.44772 14 9 14Z"
              fill="currentColor"/>
        <path d="M15 14C15.5523 14 16 13.5523 16 13C16 12.4477 15.5523 12 15 12C14.4477 12 14 12.4477 14 13C14 13.5523 14.4477 14 15 14Z"
              fill="currentColor"/>
        <path d="M18.0024 11.03C17.5224 8.18 15.0424 6 12.0524 6C9.02241 6 5.76241 8.51 6.02241 12.45C8.49241 11.44 10.3524 9.24 10.8824 6.56C12.1924 9.19 14.8824 11 18.0024 11.03Z"
              fill="currentColor"/>
    </g>
    <defs>
        <clipPath id="clip0_2068_3838">
            <rect width="24" height="24" fill="currentColor"/>
        </clipPath>
    </defs>
</svg>
